<svg width="44" height="60" viewBox="0 0 44 60" fill="none" xmlns="http://www.w3.org/2000/svg">
<path d="M21.96 60.06L43.86 41.34L35.52 27.48H8.4L0 41.34L21.96 60.06Z" fill="#54493E"/>
<path d="M21.54 42.78C9.71999 42.78 0.179993 33.18 0.179993 21.42C0.179993 9.66 9.77999 0 21.54 0C33.3 0 42.9 9.6 42.9 21.36C42.9 33.12 33.36 42.78 21.54 42.78ZM21.54 4.98C12.48 4.98 5.09999 12.36 5.09999 21.42C5.09999 30.48 12.48 37.8 21.54 37.8C30.6 37.8 37.98 30.42 37.98 21.36C37.98 12.3 30.6 4.98 21.54 4.98Z" fill="#FFAE2B"/>
</svg>
