<svg width="49" height="60" viewBox="0 0 49 60" fill="none" xmlns="http://www.w3.org/2000/svg">
<path d="M21.12 59.82C21.42 59.82 21.66 59.88 21.96 59.88H26.28C38.46 59.88 48.3 50.04 48.3 37.86V33.54C48.3 21.36 38.46 11.52 26.28 11.52H21.96C21.66 11.52 21.42 11.58 21.12 11.58V59.82Z" fill="#FFAE2B"/>
<path d="M28.08 52.08H23.94C10.74 52.08 0 41.34 0 28.14V24C0 10.74 10.74 0 23.94 0H28.08C28.32 0 28.5 0 28.74 0L31.56 0.12V51.9L28.74 52.02C28.56 52.08 28.32 52.08 28.08 52.08ZM23.94 5.4C13.68 5.4 5.34 13.74 5.34 24V28.14C5.34 38.4 13.68 46.74 23.94 46.74H26.22V5.4H23.94Z" fill="#54493E"/>
</svg>
