<svg width="27" height="26" viewBox="0 0 27 26" fill="none" xmlns="http://www.w3.org/2000/svg">
<path d="M15.1126 8.46593C14.9813 6.78101 14.3006 5.25258 13.25 4.06406C12.0767 5.39135 11.3625 7.14171 11.3625 9.06144C11.3625 10.9812 12.0767 12.7315 13.25 14.0588M13.25 14.0588C13.4268 15.8294 12.9861 17.6694 11.8693 19.2225C10.7524 20.7754 9.15616 21.7676 7.43475 22.1446C7.27604 20.559 7.6148 18.918 8.48894 17.4772M13.25 14.0588C14.1373 12.5213 15.5639 11.2943 17.3717 10.7011C19.1786 10.1079 21.0471 10.253 22.6591 10.9702C21.8652 12.3473 20.6361 13.4737 19.0906 14.1202M16.5135 7.89717C16.2106 5.53821 15.0021 3.46681 13.25 2.05117C11.2146 3.69566 9.90969 6.22399 9.90969 9.06144C9.90969 11.1251 10.6024 13.0233 11.762 14.5389M17.9339 7.54744C17.4923 4.48018 15.7307 1.84599 13.25 0.25C10.3694 2.10333 8.45693 5.35555 8.45693 9.06125C8.45693 11.1361 9.05689 13.0685 10.0903 14.6934M8.56038 10.5408C6.93367 10.146 5.28428 10.3277 3.84066 10.9702C4.72756 12.5073 6.15499 13.7345 7.96213 14.3277C9.76927 14.9209 11.638 14.7756 13.2502 14.0586C14.9718 14.4359 16.568 15.4279 17.6849 16.9811C18.8016 18.5338 19.2424 20.3743 19.0654 22.1446C17.5235 21.807 16.0833 20.9744 14.9969 19.6893M8.45769 9.01909C6.14336 8.58141 3.81989 9.10244 1.94549 10.3481C2.86459 12.8118 4.84169 14.8468 7.51306 15.7237C9.45586 16.3614 11.457 16.2825 13.242 15.6367M8.56724 7.54648C5.54321 7.02314 2.51917 7.9014 0.25 9.79168C1.1047 13.1319 3.57545 15.9745 7.06418 17.1195C9.01765 17.7607 11.0224 17.7815 12.8712 17.2908M7.02455 17.1059C5.8972 19.1942 5.66972 21.5872 6.2634 23.7733C8.86656 23.6515 11.3937 22.381 13.0446 20.0854C14.2453 18.4158 14.7895 16.4688 14.7331 14.5542M5.672 16.5454C4.24496 19.2891 4.13712 22.4661 5.2155 25.2304C8.6244 25.4413 12.0638 23.9458 14.22 20.948C15.4271 19.2691 16.0662 17.3495 16.1757 15.4213M14.1946 20.9815C15.8124 22.7099 17.9949 23.6681 20.2364 23.7732C20.9263 21.2346 20.511 18.4137 18.8601 16.1185C17.6592 14.449 15.9943 13.3243 14.1744 12.7868M13.249 22.1079C15.3911 24.3269 18.3489 25.4123 21.2845 25.2304C22.5365 22.0203 22.1914 18.2538 20.0354 15.2558C18.8279 13.5771 17.2181 12.3703 15.4367 11.6689M20.0592 15.2905C22.1865 14.2702 23.7629 12.4694 24.5543 10.3483C22.3776 8.90072 19.5938 8.4282 16.9226 9.30511C14.9798 9.94277 13.4066 11.195 12.338 12.7773M20.8272 16.5469C23.5784 15.1744 25.514 12.6684 26.25 9.7913C23.6148 7.59671 19.9621 6.76427 16.4735 7.90929C14.5201 8.55061 12.8865 9.72451 11.6757 11.2191" stroke="white" stroke-width="0.5" stroke-miterlimit="10" stroke-linecap="round" stroke-linejoin="round"/>
</svg>
