<svg width="40" height="38" viewBox="0 0 40 38" fill="none" xmlns="http://www.w3.org/2000/svg">
<path d="M19.9036 8.24764C17.8111 10.7997 16.7198 13.9743 16.8075 17.3248L16.8287 18.1365L15.2843 17.7745L14.157 16.5937C14.1985 14.666 14.5737 12.7819 15.2755 10.9821C16.6177 7.54029 18.5704 5.73695 19.9036 4.40378L20.4335 6.54699L19.9036 8.24764Z" fill="white"/>
<path d="M15.9774 9.42151C15.7308 9.90166 15.4949 10.4196 15.2756 10.9821C14.6654 12.5469 14.3024 14.1754 14.1906 15.8408C15.3549 16.0739 16.2633 16.4166 16.8061 16.6549C16.8535 14.3785 17.4477 12.1986 18.5322 10.2585C17.5708 9.73809 16.6555 9.51463 15.9774 9.42151Z" fill="white"/>
<path d="M9.80198 25.7436C13.1265 26.2862 16.4452 25.5818 19.2113 23.8865L19.9036 23.4623L20.4335 25.1997L19.9036 26.5471C17.4823 27.8747 14.7716 28.5729 12.015 28.5731C9.58737 28.5732 7.98552 28.0719 6.47278 27.6666L8.03656 26.2334L9.80198 25.7436Z" fill="white"/>
<path d="M12.6417 25.9087C13.2796 26.805 13.6103 27.7441 13.7816 28.4771C15.9221 28.2439 18.0021 27.5898 19.9035 26.5472L19.9381 26.4593C19.7373 25.3961 19.342 24.5604 19.0109 24.0064C17.0847 25.1429 14.902 25.8051 12.6417 25.9087Z" fill="white"/>
<path d="M30.0051 25.7436C28.8408 22.6548 26.6373 20.1224 23.692 18.5239L22.9784 18.1366L24.2758 16.8574L25.6501 16.5938C27.2991 17.5934 28.7435 18.8606 29.9514 20.3687C32.2607 23.2518 32.8454 25.8421 33.3343 27.6666L31.7349 27.2727L30.0051 25.7436Z" fill="white"/>
<path d="M24.5255 19.0139C26.4118 20.2106 27.9477 21.815 29.0431 23.7113C29.9385 23.1069 30.5651 22.4032 30.9848 21.8081C30.6843 21.3382 30.3432 20.8578 29.9515 20.3687C28.8936 19.0479 27.6544 17.912 26.2551 16.9786C25.6306 17.8838 24.9959 18.5652 24.5255 19.0139Z" fill="white"/>
<path d="M12.6366 37.2754C10.1412 37.2754 7.64576 35.7367 5.82893 33.9967C-4.27076 23.8971 -0.717964 6.80063 12.4142 1.47537C25.4622 -3.81562 39.8081 5.77088 39.8081 19.9222C39.8081 29.9604 32.4473 37.2754 27.1714 37.2754C22.92 37.2754 20.4158 32.9063 21.3447 28.4984C23.0018 20.6346 27.805 20.754 30.2784 13.9703C25.3455 12.9735 22.6496 14.4226 19.9037 16.1055C17.1613 14.4249 14.4805 12.9697 9.52868 13.9703C11.9994 20.7465 16.8077 20.6457 18.4625 28.4984C19.3928 32.9137 16.8819 37.2752 12.6366 37.2754ZM7.68226 32.1031C13.7038 37.6112 16.6882 32.9281 15.8699 29.0447C14.3256 21.7163 9.14312 22.3635 6.55252 13.379L6.17851 12.0818C9.99306 11.0596 14.3368 9.88904 19.9037 13.0156C22.3539 11.6395 24.7089 10.9946 27.2559 10.9946C29.8066 10.9946 31.8897 11.6158 33.6286 12.0818L33.2546 13.379C30.6644 22.3622 25.4818 21.7148 23.9372 29.0447C23.1207 32.9196 26.0885 37.6248 32.1248 32.1031C38.8328 25.3738 38.8258 14.4423 32.1047 7.72112C25.3613 0.977703 14.4463 0.977182 7.70229 7.72112C0.981266 14.4423 0.974307 25.3739 7.68226 32.1031Z" fill="white"/>
<path d="M23.8065 30.1703C23.8159 29.794 23.8593 29.4156 23.9374 29.0447C24.4268 26.7221 25.2817 25.2005 26.3034 23.9196C25.1699 23.7186 24.2335 23.4001 23.5718 23.1266C22.6417 24.4592 21.8481 26.1103 21.3449 28.4984C21.2896 28.7607 21.2469 29.0228 21.2156 29.2838C22.2004 29.838 23.1384 30.0726 23.8065 30.1703Z" fill="white"/>
<path d="M8.83881 18.5174C10.2752 20.706 11.8914 21.9951 13.2527 23.6136C13.9269 22.7659 14.6 22.1315 15.1089 21.7067C13.7032 20.1117 12.148 18.8208 10.8535 16.7253C9.92892 17.2883 9.2737 17.9614 8.83881 18.5174Z" fill="white"/>
<path d="M27.2466 13.6441C27.1486 12.6378 26.8596 11.6938 26.5995 11.0095C24.3885 11.1081 22.3063 11.7103 20.1584 12.8752C20.6597 13.9806 20.8209 14.8981 20.8577 15.5347C22.6772 14.4823 24.5898 13.6422 27.2466 13.6441Z" fill="white"/>
<path d="M6.47278 27.6666C6.92216 25.9896 7.49675 23.3138 9.85566 20.3687C11.0636 18.8606 12.508 17.5934 14.1569 16.5938L16.8287 18.1366L16.1151 18.5239C13.1698 20.1225 10.9663 22.6548 9.80198 25.7437L6.47278 27.6666Z" fill="white"/>
<path d="M33.3344 27.6666L32.0549 28.0094C27.9027 29.1221 23.5786 28.5621 19.9036 26.5471V23.4623L20.5958 23.8865C23.3607 25.581 26.6786 26.2864 30.0052 25.7435L33.3344 27.6666Z" fill="white"/>
<path d="M22.9784 18.1365L22.9997 17.3248C23.0874 13.9742 21.9961 10.7997 19.9036 8.24764V4.40378L20.8403 5.3405C23.9542 8.45443 25.5623 12.5136 25.6501 16.5937L22.9784 18.1365Z" fill="white"/>
</svg>
