<svg width="106" height="16" viewBox="0 0 106 16" fill="none" xmlns="http://www.w3.org/2000/svg">
<path d="M9.80994 8.82006C10.1879 8.91006 10.5119 9.12606 10.7459 9.43206C10.9619 9.72006 11.1059 10.0801 11.1059 10.4761V14.4901C10.2959 14.8141 9.28794 15.1921 8.18994 15.1921C8.00994 15.1921 7.82994 15.1741 7.64994 15.1561C7.61394 15.1561 2.62794 14.6521 2.62794 7.84806C2.62794 3.70806 4.87794 0.34206 7.66794 0.34206C8.90994 0.34206 9.86394 0.90006 10.5659 1.67406C11.3039 2.48406 11.7899 3.51006 11.9339 4.60806C11.9519 4.80606 11.9699 5.00406 11.9699 5.20206C11.9699 5.72406 11.8799 6.28206 11.6099 6.80406C11.6099 6.80406 13.7339 6.64206 13.7339 4.10406C13.7339 4.10406 13.6799 2.80806 12.6539 1.87206C11.7899 1.09806 10.2599 0.12606 8.06394 0.0180596C7.93794 0.0180596 7.81194 5.98431e-05 7.68594 5.98431e-05C3.77994 5.98431e-05 0.467941 2.95206 0.0539414 6.96606C0.0179415 7.25406 -5.85616e-05 7.56006 -5.85616e-05 7.84806C-5.85616e-05 12.1681 3.43794 15.6781 7.66794 15.6781C8.40594 15.6781 9.14394 15.5701 9.80994 15.3721C10.3859 15.1921 10.9619 15.1201 11.5559 15.1201C11.9879 15.1201 12.4379 15.1561 12.8879 15.2641L13.7339 15.4621V10.4761C13.7339 9.70206 14.2559 9.00006 15.0299 8.82006H9.80994ZM25.8998 14.8501C25.6658 14.5621 25.5218 14.2021 25.5218 13.8061V12.1321C25.5218 11.2141 25.1618 10.3861 24.5498 9.79206C24.1718 9.39606 23.6858 9.10806 23.1278 8.94606C23.0018 8.91006 22.8758 8.89206 22.7498 8.85606C24.1538 8.42406 26.3138 7.36206 26.3138 4.64406C26.3138 3.40206 25.8278 2.26806 24.9998 1.45806C24.1898 0.64806 23.0558 0.14406 21.8138 0.14406H15.3878C15.7658 0.23406 16.0898 0.45006 16.3238 0.75606C16.5578 1.04406 16.6838 1.42206 16.6838 1.80006V13.8061C16.6838 14.5801 16.1438 15.2821 15.3878 15.4621H20.6078C20.2298 15.3721 19.9058 15.1561 19.6718 14.8501C19.4558 14.5621 19.3118 14.2021 19.3118 13.8061V12.2941C19.3118 11.4481 19.6358 10.6741 20.1578 10.0801C20.4278 9.79206 20.7878 9.63006 21.1658 9.63006C21.4898 9.63006 21.8318 9.75606 22.0838 10.0081C22.4978 10.4401 22.8938 11.1061 22.8938 12.1321V13.4281C22.8938 14.5441 23.8118 15.4621 24.9458 15.4621H26.8178C26.4398 15.3721 26.1158 15.1561 25.8998 14.8501ZM19.3118 0.46806H20.1218C22.4258 0.46806 23.6858 2.34006 23.6858 4.64406C23.6858 5.79606 23.3078 6.93006 22.4798 7.59606C20.7158 9.00006 19.9778 9.46806 19.3118 10.7281V0.46806ZM33.8068 0.46806C35.1208 0.46806 36.4708 1.44006 37.0648 2.71806L36.4168 0.14406H27.1828C27.5608 0.23406 27.8848 0.45006 28.1188 0.75606C28.3528 1.04406 28.4788 1.42206 28.4788 1.80006V13.8061C28.4788 14.5981 27.9388 15.2821 27.1828 15.4621H36.4168L37.0648 12.8881C36.4708 14.1841 35.1208 15.1381 33.8068 15.1381H31.1068V11.7901C31.1068 11.1241 31.4128 10.4941 31.9528 10.1161C32.4748 9.72006 33.0508 9.43206 33.5548 9.25206C33.7168 9.19806 33.8968 9.16206 34.0588 9.16206C34.7068 9.16206 35.3008 9.61206 35.4448 10.2781V7.14606C35.2648 7.93806 34.6708 8.55006 33.8968 8.78406C33.0688 9.03606 31.9888 9.52206 31.1068 10.4041V0.46806H33.8068ZM44.0548 0.46806C45.3688 0.46806 46.7188 1.44006 47.3128 2.71806L46.6648 0.14406H37.4308C37.8088 0.23406 38.1328 0.45006 38.3668 0.75606C38.6008 1.04406 38.7268 1.42206 38.7268 1.80006V13.8061C38.7268 14.5981 38.1868 15.2821 37.4308 15.4621H46.6648L47.3128 12.8881C46.7188 14.1841 45.3688 15.1381 44.0548 15.1381H41.3548V11.7901C41.3548 11.1241 41.6608 10.4941 42.2008 10.1161C42.7228 9.72006 43.2988 9.43206 43.8028 9.25206C43.9648 9.19806 44.1448 9.16206 44.3068 9.16206C44.9548 9.16206 45.5488 9.61206 45.6928 10.2781V7.14606C45.5128 7.93806 44.9188 8.55006 44.1448 8.78406C43.3168 9.03606 42.2368 9.52206 41.3548 10.4041V0.46806H44.0548ZM58.3888 1.58406C58.3888 0.91806 58.8208 0.34206 59.4508 0.14406H56.9848C57.6148 0.34206 58.0468 0.91806 58.0468 1.58406V13.7521L51.1348 0.14406H47.6788C48.0568 0.25206 48.3448 0.52206 48.5428 0.84606L48.5968 0.95406C48.6868 1.15206 48.7408 1.36806 48.7408 1.58406V14.0221C48.7408 14.6881 48.3088 15.2641 47.6788 15.4621H50.1268C49.4968 15.2641 49.0648 14.6881 49.0648 14.0221V1.87206L55.9768 15.4621H59.4508C58.8208 15.2641 58.3888 14.6881 58.3888 14.0221V1.58406ZM70.2478 0.14406L66.8278 10.7461L63.2458 0.14406H59.8078C60.1318 0.23406 60.4018 0.43206 60.5818 0.68406C60.6538 0.77406 60.7078 0.864061 60.7438 0.97206L60.8518 1.26006C60.8698 1.36806 60.8878 1.47606 60.8878 1.58406V14.0221C60.8878 14.6881 60.4558 15.2641 59.8078 15.4621H62.2738C61.9498 15.3721 61.6978 15.1741 61.4998 14.9221C61.3198 14.6701 61.2118 14.3641 61.2118 14.0221V2.37606L65.5498 15.4621L70.2478 1.22406V13.8061C70.2478 14.5981 69.7258 15.2821 68.9518 15.4621H74.1718C73.7938 15.3721 73.4698 15.1561 73.2358 14.8501C73.0198 14.5621 72.8758 14.2021 72.8758 13.8061V1.80006C72.8758 1.02606 73.4158 0.34206 74.1718 0.14406H70.2478ZM74.5382 0.14406C75.3122 0.34206 75.8342 1.02606 75.8342 1.80006V13.8061C75.8342 14.5981 75.3122 15.2821 74.5382 15.4621H79.7582C79.0022 15.2821 78.4622 14.5981 78.4622 13.8061V1.80006C78.4622 1.02606 79.0022 0.34206 79.7582 0.14406H74.5382ZM90.8205 1.58406C90.8205 0.91806 91.2525 0.34206 91.8825 0.14406H89.4165C90.0465 0.34206 90.4785 0.91806 90.4785 1.58406V13.7521L83.5665 0.14406H80.1105C80.4885 0.25206 80.7765 0.52206 80.9745 0.84606L81.0285 0.95406C81.1185 1.15206 81.1725 1.36806 81.1725 1.58406V14.0221C81.1725 14.6881 80.7405 15.2641 80.1105 15.4621H82.5585C81.9285 15.2641 81.4965 14.6881 81.4965 14.0221V1.87206L88.4085 15.4621H91.8825C91.2525 15.2641 90.8205 14.6881 90.8205 14.0221V1.58406ZM99.9254 0.46806C99.2234 0.25206 98.4854 0.14406 97.7114 0.14406H92.2394C92.6354 0.23406 92.9414 0.45006 93.1754 0.75606C93.4094 1.04406 93.5354 1.42206 93.5354 1.81806V13.8061C93.5354 14.5981 93.0134 15.2821 92.2394 15.4621H97.7114C98.4854 15.4621 99.2234 15.3541 99.9254 15.1381C103.075 14.1841 105.361 11.2681 105.361 7.81206C105.361 4.33806 103.075 1.42206 99.9254 0.46806ZM96.1634 15.1381V0.46806H97.7114C100.483 0.46806 102.733 3.76206 102.733 7.81206C102.733 11.8621 100.483 15.1381 97.7114 15.1381H96.1634Z" fill="black"/>
</svg>
