<svg width="20" height="20" viewBox="0 0 20 20" fill="none" xmlns="http://www.w3.org/2000/svg">
<g clip-path="url(#clip0_9_53)">
<path d="M7.83002 0.508179C9.75019 0.434191 11.628 1.08758 13.0869 2.33826C14.5457 3.58892 15.4789 5.34445 15.6992 7.2533C15.9193 9.1622 15.4101 11.0842 14.2744 12.6342L13.9814 13.0345L14.3788 13.3314C14.4137 13.3574 14.4422 13.3809 14.4658 13.4047V13.4056L19.2802 18.2201C19.4207 18.3608 19.5 18.5515 19.4999 18.7504C19.4998 18.9492 19.4208 19.14 19.2802 19.2806C19.1395 19.4213 18.9479 19.5004 18.749 19.5004C18.5999 19.5003 18.4552 19.4559 18.3329 19.3744L18.2187 19.2806L13.6835 14.7455L14.4579 14.1771H12.3359C12.6934 13.9284 13.0303 13.6496 13.3398 13.3402C14.0245 12.6555 14.5678 11.8423 14.9384 10.9476C15.309 10.053 15.4999 9.09374 15.4999 8.12537C15.4999 6.16945 14.7228 4.29359 13.3398 2.91052C11.9567 1.52744 10.0809 0.750366 8.12494 0.750366C6.16902 0.750405 4.29314 1.52748 2.9101 2.91052C1.52717 4.29358 0.749939 6.16951 0.749939 8.12537C0.749987 9.09374 0.94088 10.053 1.31146 10.9476C1.68209 11.8423 2.22534 12.6555 2.9101 13.3402C3.5949 14.025 4.40795 14.5682 5.30267 14.9388C6.1974 15.3095 7.15649 15.5003 8.12494 15.5004C9.09336 15.5004 10.0525 15.3094 10.9472 14.9388C11.3368 14.7775 11.7097 14.5811 12.0644 14.3568L12.2158 14.558C10.746 15.4932 8.99663 15.902 7.2558 15.7025C5.34665 15.4837 3.59059 14.5521 2.33881 13.0941C1.08707 11.6361 0.432215 9.75946 0.504822 7.83923C0.577437 5.91897 1.3721 4.09697 2.73041 2.73767C4.08865 1.37846 5.90993 0.582256 7.83002 0.508179Z" fill="#1E1E1E" stroke="black"/>
</g>
<defs>
<clipPath id="clip0_9_53">
<rect width="20" height="20" fill="white"/>
</clipPath>
</defs>
</svg>
